<svg width="79" height="45" viewBox="0 0 79 45" fill="none" xmlns="http://www.w3.org/2000/svg">
<g filter="url(#filter0_bd_440_11)">
<path d="M44.64 33.96H38.4V42H26.82V33.96H4.62V26.22L23.46 -2.86102e-06H35.76L18.66 24.54H27.18V17.4H38.4V24.54H44.64V33.96ZM62.7131 15.3C68.5931 15.3 72.9331 16.5 75.7331 18.9C78.5731 21.3 79.9931 24.5 79.9931 28.5C79.9931 31.1 79.3131 33.5 77.9531 35.7C76.6331 37.86 74.5931 39.6 71.8331 40.92C69.1131 42.2 65.7331 42.84 61.6931 42.84C58.7331 42.84 55.7931 42.48 52.8731 41.76C49.9931 41.04 47.5131 40.02 45.4331 38.7L49.6931 29.76C51.3731 30.88 53.2131 31.74 55.2131 32.34C57.2531 32.94 59.2931 33.24 61.3331 33.24C63.3731 33.24 64.9931 32.86 66.1931 32.1C67.4331 31.3 68.0531 30.2 68.0531 28.8C68.0531 27.4 67.4531 26.34 66.2531 25.62C65.0531 24.9 62.9331 24.54 59.8931 24.54H48.4931L50.5931 -2.86102e-06H77.3531V9.18H60.4331L59.8931 15.3H62.7131Z" fill="url(#paint0_linear_440_11)"/>
<path d="M44.64 33.96V34.96H45.64V33.96H44.64ZM38.4 33.96V32.96H37.4V33.96H38.4ZM38.4 42V43H39.4V42H38.4ZM26.82 42H25.82V43H26.82V42ZM26.82 33.96H27.82V32.96H26.82V33.96ZM4.62 33.96H3.62V34.96H4.62V33.96ZM4.62 26.22L3.8079 25.6365L3.62 25.898V26.22H4.62ZM23.46 -2.86102e-06V-1H22.9472L22.6479 -0.583524L23.46 -2.86102e-06ZM35.76 -2.86102e-06L36.5805 0.571709L37.6757 -1H35.76V-2.86102e-06ZM18.66 24.54L17.8395 23.9683L16.7443 25.54H18.66V24.54ZM27.18 24.54V25.54H28.18V24.54H27.18ZM27.18 17.4V16.4H26.18V17.4H27.18ZM38.4 17.4H39.4V16.4H38.4V17.4ZM38.4 24.54H37.4V25.54H38.4V24.54ZM44.64 24.54H45.64V23.54H44.64V24.54ZM44.64 32.96H38.4V34.96H44.64V32.96ZM37.4 33.96V42H39.4V33.96H37.4ZM38.4 41H26.82V43H38.4V41ZM27.82 42V33.96H25.82V42H27.82ZM26.82 32.96H4.62V34.96H26.82V32.96ZM5.62 33.96V26.22H3.62V33.96H5.62ZM5.4321 26.8035L24.2721 0.583519L22.6479 -0.583524L3.8079 25.6365L5.4321 26.8035ZM23.46 0.999996H35.76V-1H23.46V0.999996ZM34.9395 -0.571713L17.8395 23.9683L19.4805 25.1117L36.5805 0.571709L34.9395 -0.571713ZM18.66 25.54H27.18V23.54H18.66V25.54ZM28.18 24.54V17.4H26.18V24.54H28.18ZM27.18 18.4H38.4V16.4H27.18V18.4ZM37.4 17.4V24.54H39.4V17.4H37.4ZM38.4 25.54H44.64V23.54H38.4V25.54ZM43.64 24.54V33.96H45.64V24.54H43.64ZM75.7331 18.9L75.0823 19.6593L75.0877 19.6638L75.7331 18.9ZM77.9531 35.7L77.1025 35.1742L77.0998 35.1786L77.9531 35.7ZM71.8331 40.92L72.2589 41.8248L72.2646 41.8221L71.8331 40.92ZM52.8731 41.76L52.6306 42.7301L52.6337 42.7309L52.8731 41.76ZM45.4331 38.7L44.5304 38.2698L44.1493 39.0696L44.8973 39.5443L45.4331 38.7ZM49.6931 29.76L50.2478 28.9279L49.2871 28.2875L48.7904 29.3298L49.6931 29.76ZM55.2131 32.34L54.9258 33.2978L54.931 33.2994L55.2131 32.34ZM66.1931 32.1L66.7282 32.9448L66.7353 32.9403L66.1931 32.1ZM66.2531 25.62L65.7386 26.4775H65.7386L66.2531 25.62ZM48.4931 24.54L47.4968 24.4547L47.4039 25.54H48.4931V24.54ZM50.5931 -2.86102e-06V-1H49.675L49.5968 -0.0852661L50.5931 -2.86102e-06ZM77.3531 -2.86102e-06H78.3531V-1H77.3531V-2.86102e-06ZM77.3531 9.18V10.18H78.3531V9.18H77.3531ZM60.4331 9.18V8.18H59.5175L59.437 9.0921L60.4331 9.18ZM59.8931 15.3L58.897 15.2121L58.801 16.3H59.8931V15.3ZM62.7131 16.3C68.4882 16.3 72.5443 17.4838 75.0823 19.6593L76.3839 18.1407C73.3219 15.5162 68.698 14.3 62.7131 14.3V16.3ZM75.0877 19.6638C77.6842 21.858 78.9931 24.769 78.9931 28.5H80.9931C80.9931 24.231 79.4621 20.742 76.3786 18.1362L75.0877 19.6638ZM78.9931 28.5C78.9931 30.9153 78.3643 33.133 77.1025 35.1742L78.8037 36.2258C80.2619 33.867 80.9931 31.2847 80.9931 28.5H78.9931ZM77.0998 35.1786C75.9 37.1419 74.024 38.7637 71.4017 40.0179L72.2646 41.8221C75.1623 40.4363 77.3662 38.5781 78.8064 36.2215L77.0998 35.1786ZM71.4073 40.0152C68.8581 41.2148 65.634 41.84 61.6931 41.84V43.84C65.8323 43.84 69.3682 43.1852 72.2589 41.8248L71.4073 40.0152ZM61.6931 41.84C58.8151 41.84 55.9555 41.4901 53.1125 40.7891L52.6337 42.7309C55.6308 43.4699 58.6511 43.84 61.6931 43.84V41.84ZM53.1157 40.7899C50.3189 40.0907 47.9422 39.1079 45.9689 37.8557L44.8973 39.5443C47.084 40.9321 49.6673 41.9893 52.6306 42.7301L53.1157 40.7899ZM46.3359 39.1302L50.5959 30.1902L48.7904 29.3298L44.5304 38.2698L46.3359 39.1302ZM49.1384 30.592C50.9036 31.7688 52.8342 32.6703 54.9258 33.2978L55.5005 31.3822C53.5921 30.8097 51.8426 29.9912 50.2478 28.9279L49.1384 30.592ZM54.931 33.2994C57.0587 33.9252 59.1936 34.24 61.3331 34.24V32.24C59.3926 32.24 57.4476 31.9548 55.4953 31.3806L54.931 33.2994ZM61.3331 34.24C63.4841 34.24 65.3127 33.8413 66.7282 32.9448L65.6581 31.2552C64.6735 31.8787 63.2621 32.24 61.3331 32.24V34.24ZM66.7353 32.9403C68.2422 31.9681 69.0531 30.5612 69.0531 28.8H67.0531C67.0531 29.8388 66.6241 30.6319 65.651 31.2597L66.7353 32.9403ZM69.0531 28.8C69.0531 27.0489 68.269 25.6633 66.7676 24.7625L65.7386 26.4775C66.6373 27.0167 67.0531 27.7511 67.0531 28.8H69.0531ZM66.7676 24.7625C65.3137 23.8901 62.9475 23.54 59.8931 23.54V25.54C62.9187 25.54 64.7926 25.9099 65.7386 26.4775L66.7676 24.7625ZM59.8931 23.54H48.4931V25.54H59.8931V23.54ZM49.4895 24.6253L51.5895 0.0852604L49.5968 -0.0852661L47.4968 24.4547L49.4895 24.6253ZM50.5931 0.999996H77.3531V-1H50.5931V0.999996ZM76.3531 -2.86102e-06V9.18H78.3531V-2.86102e-06H76.3531ZM77.3531 8.18H60.4331V10.18H77.3531V8.18ZM59.437 9.0921L58.897 15.2121L60.8893 15.3879L61.4293 9.26789L59.437 9.0921ZM59.8931 16.3H62.7131V14.3H59.8931V16.3Z" fill="white"/>
</g>
<defs>
<filter id="filter0_bd_440_11" x="-95.38" y="-100" width="275.373" height="242.84" filterUnits="userSpaceOnUse" color-interpolation-filters="sRGB">
<feFlood flood-opacity="0" result="BackgroundImageFix"/>
<feGaussianBlur in="BackgroundImageFix" stdDeviation="50"/>
<feComposite in2="SourceAlpha" operator="in" result="effect1_backgroundBlur_440_11"/>
<feColorMatrix in="SourceAlpha" type="matrix" values="0 0 0 0 0 0 0 0 0 0 0 0 0 0 0 0 0 0 127 0" result="hardAlpha"/>
<feOffset dy="4"/>
<feGaussianBlur stdDeviation="2"/>
<feColorMatrix type="matrix" values="0 0 0 0 0 0 0 0 0 0 0 0 0 0 0 0 0 0 0.25 0"/>
<feBlend mode="normal" in2="effect1_backgroundBlur_440_11" result="effect2_dropShadow_440_11"/>
<feBlend mode="normal" in="SourceGraphic" in2="effect2_dropShadow_440_11" result="shape"/>
</filter>
<linearGradient id="paint0_linear_440_11" x1="3" y1="-9.34734" x2="74.4941" y2="38.4757" gradientUnits="userSpaceOnUse">
<stop stop-color="#6AB972"/>
<stop offset="1" stop-color="#4F934A"/>
</linearGradient>
</defs>
</svg>
